<?xml version="1.0" encoding="utf-8"?>
<!-- Generator: Adobe Illustrator 19.0.0, SVG Export Plug-In . SVG Version: 6.00 Build 0)  -->
<svg version="1.1" id="Layer_1" xmlns="http://www.w3.org/2000/svg" xmlns:xlink="http://www.w3.org/1999/xlink" x="0px" y="0px"
	 viewBox="-154 350.9 286 140" style="enable-background:new -154 350.9 286 140;" xml:space="preserve">
<style type="text/css">
	.st0{fill:#FFFFFF;}
	.st1{enable-background:new    ;}
	.st2{font-family:'Swiss721BT-Heavy';}
	.st3{font-size:20.2848px;}
	.st4{fill:#BFBCBA;}
	.st5{fill:#EFECEA;}
	.st6{fill:#617493;}
	.st7{fill:#EB2524;}
	.st8{fill:#84A6C6;}
	.st9{fill:#DCE3EB;}
	.st10{fill:#8894A0;}
	.st11{fill:#ED1C24;}
	.st12{font-family:'Rockwell-ExtraBold';}
	.st13{font-size:15.2473px;}
</style>
<rect id="XMLID_1_" x="-154" y="350.9" class="st0" width="286" height="139.8"/>
<text transform="matrix(1 0 0 1 -1 409.8901)" class="st1"><tspan x="0" y="0" class="st2 st3">GANTI</tspan><tspan x="0" y="24.3" class="st2 st3">ACCU</tspan></text>
<g>
	<path class="st4" d="M-63.2,436.9c-30.3,0-54.8,4-54.8,9c0,5,24.6,9,54.9,9L-63.2,436.9z"/>
	<path class="st4" d="M-63.9,436.9c29.8,0,53.9,4,53.9,9c0,5-24.2,9-54,9L-63.9,436.9z"/>
</g>
<g>
	<path class="st5" d="M-63.3,436.9c-25.2,0-45.7,3.2-45.7,7.2c0,4,20.5,7.2,45.8,7.2L-63.3,436.9z"/>
	<path class="st5" d="M-63.9,436.9c24.8,0,44.9,3.2,44.9,7.2c0,4-20.1,7.2-45,7.2L-63.9,436.9z"/>
</g>
<g id="XMLID_13_">
	<rect id="XMLID_11_" x="-105.4" y="417.5" class="st6" width="83.6" height="2.7"/>
	<g id="XMLID_22_">
		<rect id="XMLID_3_" x="-107.6" y="387.1" class="st7" width="87.9" height="3.6"/>
		<rect id="XMLID_6_" x="-103" y="384" class="st7" width="78.8" height="2.6"/>
		<rect id="XMLID_7_" x="-104.9" y="390.7" class="st8" width="83.6" height="2.6"/>
		<rect id="XMLID_8_" x="-105.4" y="393.5" class="st9" width="83.6" height="25.4"/>
		<rect id="XMLID_12_" x="-105.4" y="419.8" class="st10" width="83.6" height="23.9"/>
		<text id="XMLID_5_" transform="matrix(1.0674 0 0 1 -100.1182 409.11)" class="st11 st12 st13">+</text>
		<text id="XMLID_10_" transform="matrix(1.0674 0 0 1 -39.0986 409.11)" class="st11 st12 st13">-</text>
		<rect id="XMLID_9_" x="-109" y="393.5" class="st10" width="3.6" height="5.4"/>
		<rect id="XMLID_14_" x="-21.8" y="394.5" class="st10" width="3.1" height="5.1"/>
		<rect id="XMLID_17_" x="-105.4" y="443.5" class="st10" width="5.1" height="2.3"/>
		<rect id="XMLID_20_" x="-71.5" y="443.5" class="st10" width="4.7" height="2.3"/>
		<rect id="XMLID_21_" x="-59.5" y="443.5" class="st10" width="4.1" height="2.3"/>
		<rect id="XMLID_18_" x="-25.6" y="443.5" class="st10" width="3.7" height="2.3"/>
	</g>
</g>
</svg>
