<?xml version="1.0" encoding="utf-8"?>
<!-- Generator: Adobe Illustrator 19.0.0, SVG Export Plug-In . SVG Version: 6.00 Build 0)  -->
<svg version="1.1" id="Layer_1" xmlns="http://www.w3.org/2000/svg" xmlns:xlink="http://www.w3.org/1999/xlink" x="0px" y="0px"
	 viewBox="-154 350.9 286 140" style="enable-background:new -154 350.9 286 140;" xml:space="preserve">
<style type="text/css">
	.st0{fill:#FFFFFF;}
	.st1{font-family:'Swiss721BT-Heavy';}
	.st2{font-size:20.2848px;}
	.st3{fill:#BFBCBA;}
	.st4{fill:#EFECEA;}
	.st5{fill:#26BCB4;}
	.st6{fill:#4D2B13;}
	.st7{fill:#6583BA;}
	.st8{fill:#B56428;}
	.st9{fill:#AD682A;}
	.st10{fill:#1BBAAE;}
	.st11{fill:#52220D;}
	.st12{fill:#4A240D;}
</style>
<rect id="XMLID_1_" x="-154" y="351" class="st0" width="286" height="139.8"/>
<text transform="matrix(1 0 0 1 -1 418.9699)" class="st1 st2">SERVIS</text>
<text transform="matrix(1 0 0 1 -1 443.2699)" class="st1 st2">UMUM</text>
<g>
	<path class="st3" d="M-59.3,436.5c-30.3,0-54.8,4-54.8,9s24.6,9,54.9,9L-59.3,436.5z"/>
	<path class="st3" d="M-60.1,436.5c29.8,0,53.9,4,53.9,9s-24.2,9-54,9L-60.1,436.5z"/>
</g>
<g>
	<path class="st4" d="M-59.4,436.5c-25.2,0-45.7,3.2-45.7,7.2s20.5,7.2,45.8,7.2L-59.4,436.5z"/>
	<path class="st4" d="M-60.1,436.5c24.8,0,44.9,3.2,44.9,7.2s-20.1,7.2-45,7.2L-60.1,436.5z"/>
</g>
<g id="XMLID_35_">
	<polygon id="XMLID_31_" class="st5" points="-66.1,435.9 -66.1,443.2 -61.4,443.2 -61.4,441.3 -54.2,441.1 -54.2,439.6 
		-61.4,439.6 -61.4,435.9 	"/>
	<circle id="XMLID_30_" class="st6" cx="-98.9" cy="435.9" r="10.1"/>
	<path id="XMLID_29_" class="st7" d="M-88.1,387.7v24l-4.2,1.4l-2,6c0,0-7.9-0.2-9.7,1.4c-1.8,1.6-5,5.4-5,5.4s9.8-0.2,14.6,3.1
		c4.8,3.3,8.7,6.6,8.7,6.6h5l3.9,2.1l28.4,0.8l25.5-18.8v-7.5l-35.6-0.8v1.7l6.2,9.5v5.4c0,0-2.9,6.4-4.8,6.6s-18,0-18,0
		s-5.8-3.5-6.8-9.3s-1.2-29.6-1.2-29.6l1.2-0.6l2.1,0.8l0.4-3.3h-1.9l-0.2-2.3l-1.9-2.7L-88.1,387.7L-88.1,387.7z"/>
	<polygon id="XMLID_28_" class="st8" points="-58.7,411.5 -62.6,411.5 -62.6,409 -19.6,409 -19.6,412.3 	"/>
	<rect id="XMLID_26_" x="-58.9" y="402.6" class="st5" width="27.1" height="6.4"/>
	<circle id="XMLID_27_" class="st6" cx="-28.8" cy="435.9" r="10.1"/>
	<circle id="XMLID_25_" class="st9" cx="-28.7" cy="435.9" r="6.6"/>
	<path id="XMLID_24_" class="st10" d="M-13.2,432.2c0.1-0.7,0.2-1.5,0.2-2.3c0-9.7-7.9-17.6-17.6-17.6s-17.6,7.9-17.6,17.6
		c0,0.8,0.1,1.5,0.2,2.3H-13.2z"/>
	<path id="XMLID_23_" class="st10" d="M-88.1,387.7c-0.2,0-0.4,0-0.6,0c-2.4,0-4.3,1.9-4.3,4.3s1.9,4.3,4.3,4.3c0.2,0,0.4,0,0.6,0
		V387.7z"/>
	<rect id="XMLID_19_" x="-51.3" y="432.2" class="st11" width="40.1" height="2.7"/>
	<polygon id="XMLID_16_" class="st12" points="-79.6,392.7 -74.9,395.2 -74.9,397.3 -80,396 	"/>
	<circle id="XMLID_15_" class="st9" cx="-98.9" cy="435.9" r="6.6"/>
</g>
</svg>
