<?xml version="1.0" encoding="utf-8"?>
<!-- Generator: Adobe Illustrator 19.0.0, SVG Export Plug-In . SVG Version: 6.00 Build 0)  -->
<svg version="1.1" id="Layer_1" xmlns="http://www.w3.org/2000/svg" xmlns:xlink="http://www.w3.org/1999/xlink" x="0px" y="0px"
	 viewBox="-154 350.9 286 140" style="enable-background:new -154 350.9 286 140;" xml:space="preserve">
<style type="text/css">
	.st0{fill:#FFFFFF;}
	.st1{font-family:'Swiss721BT-Heavy';}
	.st2{font-size:20.2848px;}
	.st3{fill:#BFBCBA;}
	.st4{fill:#EFECEA;}
	.st5{fill:#D6D6D6;}
	.st6{fill:#FE4A45;}
	.st7{fill:#C73E3F;}
	.st8{fill:#89292E;}
	.st9{fill:#F9F9F9;}
	.st10{fill:#282828;}
	.st11{fill:#616161;}
	.st12{fill:#CA3D40;}
	.st13{fill:#7D7D7D;}
	.st14{fill:#616164;}
</style>
<g>
	<rect id="XMLID_2_" x="-154" y="351" class="st0" width="286" height="139.8"/>
	<text transform="matrix(1 0 0 1 -11.8896 421.399)" class="st1 st2">SERVIS</text>
	<text transform="matrix(1 0 0 1 -11.8896 445.699)" class="st1 st2">DARURAT</text>
	<g>
		<g>
			<path class="st3" d="M-63.3,433.9c26.4,0,47.8,4.3,47.8,9.7c0,5.4-21.5,9.7-47.9,9.7L-63.3,433.9z"/>
			<path class="st3" d="M-62.7,433.9c-26.9,0-48.6,4.3-48.6,9.7c0,5.4,21.8,9.7,48.7,9.7L-62.7,433.9z"/>
		</g>
		<path class="st4" d="M-63.2,433.9c-22.5,0-40.9,3.7-40.9,8.3s18.3,8.3,41,8.3L-63.2,433.9z"/>
		<path class="st5" d="M-63.3,433.9c21.9,0,39.7,3.7,39.7,8.3s-17.8,8.3-39.8,8.3L-63.3,433.9z"/>
		<g>
			<path class="st6" d="M-62.2,398.8h-3.1c-8.5,0-15.4,6.9-15.4,15.4v19.6h18.5"/>
			<path class="st7" d="M-63.2,433.9h18.5v-19.6c0-8.5-6.9-15.4-15.4-15.4h-3.1"/>
			<g>
				<path class="st8" d="M-63.2,420.3H-64c-2.3,0-4,2.5-4,5.6v7.2h4.9"/>
				<path class="st8" d="M-63.2,433.2h4.9v-7.2c0-3.1-1.8-5.6-4-5.6h-0.8"/>
			</g>
			<circle class="st9" cx="-74.2" cy="416.4" r="3.1"/>
			<circle class="st9" cx="-71.1" cy="409.6" r="2.2"/>
			<rect x="-65.3" y="439.5" class="st10" width="28.2" height="7.5"/>
			<rect x="-86.9" y="439.5" class="st11" width="23.7" height="7.5"/>
			<path class="st12" d="M-62.9,397.4h-1.3c-0.6,0-1-0.5-1-1V384c0-0.6,0.5-1,1-1h1.2c0.6,0,1,0.5,1,1v12.3
				C-61.8,396.9-62.3,397.4-62.9,397.4z"/>
			<path class="st12" d="M-72.9,399l-1,0.7c-0.5,0.3-1.1,0.2-1.6-0.3l-6.6-10.3c-0.3-0.5-0.2-1.1,0.3-1.6l1-0.7
				c0.5-0.3,1.1-0.2,1.6,0.3l6.6,10.3C-72.3,398.1-72.5,398.8-72.9,399z"/>
			<path class="st12" d="M-81.6,407.1l-0.6,1c-0.3,0.5-1,0.7-1.5,0.3l-10.7-6.1c-0.5-0.3-0.7-1-0.3-1.5l0.6-1c0.3-0.5,1-0.7,1.5-0.3
				l10.7,6.1C-81.4,405.9-81.2,406.6-81.6,407.1z"/>
			<path class="st12" d="M-52.3,399l1,0.7c0.5,0.3,1.1,0.2,1.6-0.3l6.6-10.3c0.3-0.5,0.2-1.1-0.3-1.6l-1-0.7
				c-0.5-0.3-1.1-0.2-1.6,0.3l-6.6,10.3C-52.8,398.1-52.7,398.8-52.3,399z"/>
			<path class="st12" d="M-43.5,407.1l0.6,1c0.3,0.5,1,0.7,1.5,0.3l10.7-6.1c0.5-0.3,0.7-1,0.3-1.5l-0.6-1c-0.3-0.5-1-0.7-1.5-0.3
				l-10.7,6.1C-43.6,405.9-43.9,406.6-43.5,407.1z"/>
			<rect x="-84.3" y="433.2" class="st13" width="22" height="6.2"/>
			<rect x="-63.2" y="433.2" class="st14" width="23.1" height="6.2"/>
		</g>
	</g>
</g>
</svg>
