<?xml version="1.0" encoding="utf-8"?>
<!-- Generator: Adobe Illustrator 19.0.0, SVG Export Plug-In . SVG Version: 6.00 Build 0)  -->
<svg version="1.1" id="Layer_1" xmlns="http://www.w3.org/2000/svg" xmlns:xlink="http://www.w3.org/1999/xlink" x="0px" y="0px"
	 viewBox="0 0 286 140" style="enable-background:new 0 0 286 140;" xml:space="preserve">
<style type="text/css">
	.st0{fill:#FFFFFF;}
	.st1{fill:#FEEF55;}
	.st2{font-family:'Swiss721BT-Heavy';}
	.st3{font-size:23.5045px;}
	.st4{fill:#617493;}
	.st5{fill:#EB2524;}
	.st6{fill:#84A6C6;}
	.st7{fill:#DCE3EB;}
	.st8{fill:#8894A0;}
	.st9{fill:#ED1C24;}
	.st10{font-family:'Rockwell-ExtraBold';}
	.st11{font-size:13.0304px;}
</style>
<rect id="XMLID_1_" y="0.2" class="st0" width="286" height="139.8"/>
<path id="XMLID_4_" class="st1" d="M162.5,35.7c0,39.8,34.4,72.1,76.8,72.1c17.6,0,33.8-5.6,46.7-14.9V0.2H172.4
	C166.1,10.7,162.5,22.8,162.5,35.7z"/>
<text id="XMLID_2_" transform="matrix(0.991 0 0 1 14.0423 54.364)"><tspan x="0" y="0" class="st2 st3">GANTI</tspan><tspan x="0" y="28.2" class="st2 st3">SPAREPART</tspan></text>
<g id="XMLID_13_">
	<rect id="XMLID_11_" x="198" y="47.7" class="st4" width="66.9" height="2.3"/>
	<g id="XMLID_22_">
		<rect id="XMLID_3_" x="196.2" y="21.8" class="st5" width="70.4" height="3.1"/>
		<rect id="XMLID_6_" x="199.9" y="19.1" class="st5" width="63.1" height="2.2"/>
		<rect id="XMLID_7_" x="198.4" y="24.8" class="st6" width="66.9" height="2.2"/>
		<rect id="XMLID_8_" x="198" y="27.2" class="st7" width="66.9" height="21.7"/>
		<rect id="XMLID_12_" x="198" y="49.7" class="st8" width="66.9" height="20.4"/>
		<text id="XMLID_5_" transform="matrix(1 0 0 1 202.2116 40.5894)" class="st9 st10 st11">+</text>
		<text id="XMLID_10_" transform="matrix(1 0 0 1 251.069 40.5894)" class="st9 st10 st11">-</text>
		<rect id="XMLID_9_" x="195.1" y="27.2" class="st8" width="2.9" height="4.6"/>
		<rect id="XMLID_14_" x="264.9" y="28.1" class="st8" width="2.5" height="4.4"/>
		<rect id="XMLID_17_" x="198" y="70" class="st8" width="4.1" height="2"/>
		<rect id="XMLID_20_" x="225.1" y="70" class="st8" width="3.8" height="2"/>
		<rect id="XMLID_21_" x="234.7" y="70" class="st8" width="3.3" height="2"/>
		<rect id="XMLID_18_" x="261.9" y="70" class="st8" width="3" height="2"/>
	</g>
</g>
</svg>
