<?xml version="1.0" encoding="utf-8"?>
<!-- Generator: Adobe Illustrator 19.0.0, SVG Export Plug-In . SVG Version: 6.00 Build 0)  -->
<svg version="1.1" id="Layer_1" xmlns="http://www.w3.org/2000/svg" xmlns:xlink="http://www.w3.org/1999/xlink" x="0px" y="0px"
	 viewBox="0 0 286 140" style="enable-background:new 0 0 286 140;" xml:space="preserve">
<style type="text/css">
	.st0{fill:#FFFFFF;}
	.st1{fill:#FEEF55;}
	.st2{font-family:'Swiss721BT-Heavy';}
	.st3{font-size:24.1286px;}
	.st4{fill:#ED1C24;}
	.st5{fill:#5F99D2;}
</style>
<rect id="XMLID_1_" y="0.2" class="st0" width="286" height="139.8"/>
<path id="XMLID_4_" class="st1" d="M162.5,35.7c0,39.8,34.4,72.1,76.8,72.1c17.6,0,33.8-5.6,46.7-14.9V0.2H172.4
	C166.1,10.7,162.5,22.8,162.5,35.7z"/>
<text id="XMLID_2_" transform="matrix(1 0 0 1 11.9999 74.0307)" class="st2 st3">KONSULTASI</text>
<g id="XMLID_14_">
	<path id="XMLID_8_" class="st4" d="M267.3,74c-1.7-18.2-17-32.5-35.7-32.5s-34,14.3-35.7,32.5H267.3z"/>
	<polygon id="XMLID_6_" class="st0" points="218.9,43.8 229.3,45.6 229.3,52.1 	"/>
	<polygon id="XMLID_7_" class="st0" points="244.4,43.8 234,45.6 234,52.1 	"/>
	<polygon id="XMLID_5_" class="st5" points="229.3,49.3 231.8,51.9 234,49.3 234,52.1 231.6,54 229.3,52.1 	"/>
	<polygon id="XMLID_9_" class="st5" points="231.6,54 228,70 231.6,74 235.5,70.1 	"/>
	<circle id="XMLID_3_" class="st4" cx="231.6" cy="27.6" r="20.7"/>
	<g id="XMLID_13_">
		<path id="XMLID_10_" class="st0" d="M212.3,35.4L212.3,35.4c-1.4,0-2.6-1.2-2.6-2.6V22.3c0-1.4,1.2-2.6,2.6-2.6l0,0
			c1.4,0,2.6,1.2,2.6,2.6v10.5C214.9,34.3,213.7,35.4,212.3,35.4z"/>
		<polygon id="XMLID_11_" class="st0" points="212.3,35.4 212.3,43.8 229.3,43.8 229.3,41.6 214.9,41.6 214.9,32.8 		"/>
		<circle id="XMLID_12_" class="st0" cx="229.9" cy="41.9" r="1.9"/>
	</g>
</g>
</svg>
