<?xml version="1.0" encoding="utf-8"?>
<!-- Generator: Adobe Illustrator 19.0.0, SVG Export Plug-In . SVG Version: 6.00 Build 0)  -->
<svg version="1.1" id="Layer_1" xmlns="http://www.w3.org/2000/svg" xmlns:xlink="http://www.w3.org/1999/xlink" x="0px" y="0px"
	 viewBox="-539 315 286 140" style="enable-background:new -539 315 286 140;" xml:space="preserve">
<style type="text/css">
	.st0{fill:#FFFFFF;}
	.st1{fill:#FEEF55;}
	.st2{font-family:'Swiss721BT-Heavy';}
	.st3{font-size:30px;}
	.st4{fill:#FE4A45;}
	.st5{fill:#C73E3F;}
	.st6{fill:#89292E;}
	.st7{fill:#F9F9F9;}
	.st8{fill:#282828;}
	.st9{fill:#616161;}
	.st10{fill:#CA3D40;}
	.st11{fill:#7D7D7D;}
	.st12{fill:#616164;}
</style>
<rect id="XMLID_1_" x="-539" y="316.4" class="st0" width="286" height="139.8"/>
<path id="XMLID_4_" class="st1" d="M-376.5,350.7c0,39.8,34.4,72.1,76.8,72.1c17.6,0,33.8-5.6,46.7-14.9v-92.7h-113.6
	C-372.9,325.7-376.5,337.8-376.5,350.7z"/>
<text transform="matrix(1 0 0 1 -519 368.9884)" class="st2 st3">SERVIS</text>
<text transform="matrix(1 0 0 1 -519 404.9884)" class="st2 st3">DARURAT</text>
<path class="st4" d="M-306.2,340.4h-3.2c-8.8,0-16,7.2-16,16v20.3h19.2"/>
<path class="st5" d="M-307.2,376.6h19.2v-20.3c0-8.8-7.2-16-16-16h-3.2"/>
<g>
	<path class="st6" d="M-307.2,362.7h-0.8c-2.3,0-4.1,2.6-4.1,5.8v7.4h5"/>
	<path class="st6" d="M-307.2,376h5v-7.4c0-3.2-1.9-5.8-4.1-5.8h-0.8"/>
</g>
<circle class="st7" cx="-318.6" cy="358.5" r="3.2"/>
<circle class="st7" cx="-315.4" cy="351.5" r="2.2"/>
<rect x="-309.4" y="382.5" class="st8" width="29.1" height="7.7"/>
<rect x="-331.8" y="382.5" class="st9" width="24.6" height="7.7"/>
<path class="st10" d="M-307,338.9h-1.3c-0.6,0-1.1-0.5-1.1-1.1v-12.7c0-0.6,0.5-1.1,1.1-1.1h1.3c0.6,0,1.1,0.5,1.1,1.1v12.7
	C-305.8,338.4-306.3,338.9-307,338.9z"/>
<path class="st10" d="M-317.3,340.6l-1.1,0.7c-0.5,0.3-1.2,0.2-1.6-0.4l-6.8-10.7c-0.3-0.5-0.2-1.2,0.4-1.6l1.1-0.7
	c0.5-0.3,1.2-0.2,1.6,0.4l6.8,10.7C-316.6,339.6-316.8,340.3-317.3,340.6z"/>
<path class="st10" d="M-326.2,348.9l-0.6,1.1c-0.3,0.5-1,0.7-1.5,0.4l-11-6.3c-0.5-0.3-0.7-1-0.4-1.5l0.6-1.1c0.3-0.5,1-0.7,1.5-0.4
	l11,6.3C-326.1,347.7-325.9,348.4-326.2,348.9z"/>
<path class="st10" d="M-295.9,340.6l1.1,0.7c0.5,0.3,1.2,0.2,1.6-0.4l6.8-10.7c0.3-0.5,0.2-1.2-0.4-1.6l-1.1-0.7
	c-0.5-0.3-1.2-0.2-1.6,0.4l-6.8,10.7C-296.5,339.6-296.4,340.3-295.9,340.6z"/>
<path class="st10" d="M-286.9,348.9l0.6,1.1c0.3,0.5,1,0.7,1.5,0.4l11-6.3c0.5-0.3,0.7-1,0.4-1.5l-0.6-1.1c-0.3-0.5-1-0.7-1.5-0.4
	l-11,6.3C-287,347.7-287.2,348.4-286.9,348.9z"/>
<rect x="-329" y="376" class="st11" width="22.8" height="6.5"/>
<rect x="-307.2" y="376" class="st12" width="23.9" height="6.5"/>
</svg>
