<?xml version="1.0" encoding="utf-8"?>
<!-- Generator: Adobe Illustrator 19.0.0, SVG Export Plug-In . SVG Version: 6.00 Build 0)  -->
<svg version="1.1" id="Layer_1" xmlns="http://www.w3.org/2000/svg" xmlns:xlink="http://www.w3.org/1999/xlink" x="0px" y="0px"
	 viewBox="-539 315 286 140" style="enable-background:new -539 315 286 140;" xml:space="preserve">
<style type="text/css">
	.st0{fill:#FFFFFF;}
	.st1{fill:#FEEF55;}
	.st2{font-family:'Swiss721BT-Heavy';}
	.st3{font-size:30px;}
	.st4{fill:#26BCB4;}
	.st5{fill:#4D2B13;}
	.st6{fill:#6583BA;}
	.st7{fill:#B56428;}
	.st8{fill:#AD682A;}
	.st9{fill:#1BBAAE;}
	.st10{fill:#52220D;}
	.st11{fill:#4A240D;}
</style>
<rect id="XMLID_1_" x="-539" y="315.2" class="st0" width="286" height="139.8"/>
<path id="XMLID_4_" class="st1" d="M-376.5,350.7c0,39.8,34.4,72.1,76.8,72.1c17.6,0,33.8-5.6,46.7-14.9v-92.7h-113.6
	C-372.9,325.7-376.5,337.8-376.5,350.7z"/>
<text transform="matrix(1 0 0 1 -519 368.9884)" class="st2 st3">SERVIS</text>
<text transform="matrix(1 0 0 1 -519 404.9884)" class="st2 st3">UMUM</text>
<g id="XMLID_35_">
	<polygon id="XMLID_31_" class="st4" points="-316.1,379.1 -316.1,386.4 -311.4,386.4 -311.4,384.5 -304.2,384.3 -304.2,382.8 
		-311.4,382.8 -311.4,379.1 	"/>
	<circle id="XMLID_30_" class="st5" cx="-348.9" cy="379.1" r="10.1"/>
	<path id="XMLID_29_" class="st6" d="M-338.1,330.9v24l-4.2,1.4l-2,6c0,0-7.9-0.2-9.7,1.4c-1.8,1.6-5,5.4-5,5.4s9.8-0.2,14.6,3.1
		c4.8,3.3,8.7,6.6,8.7,6.6h5l3.9,2.1l28.4,0.8l25.5-18.8v-7.5l-35.6-0.8v1.7l6.2,9.5v5.4c0,0-2.9,6.4-4.8,6.6c-1.9,0.2-18,0-18,0
		s-5.8-3.5-6.8-9.3c-1-5.8-1.2-29.6-1.2-29.6l1.2-0.6l2.1,0.8l0.4-3.3h-1.9l-0.2-2.3l-1.9-2.7L-338.1,330.9L-338.1,330.9z"/>
	<polygon id="XMLID_28_" class="st7" points="-308.7,354.7 -312.6,354.7 -312.6,352.2 -269.6,352.2 -269.6,355.5 	"/>
	<rect id="XMLID_26_" x="-308.9" y="345.8" class="st4" width="27.1" height="6.4"/>
	<circle id="XMLID_27_" class="st5" cx="-278.8" cy="379.1" r="10.1"/>
	<circle id="XMLID_25_" class="st8" cx="-278.7" cy="379.1" r="6.6"/>
	<path id="XMLID_24_" class="st9" d="M-263.2,375.4c0.1-0.7,0.2-1.5,0.2-2.3c0-9.7-7.9-17.6-17.6-17.6s-17.6,7.9-17.6,17.6
		c0,0.8,0.1,1.5,0.2,2.3H-263.2z"/>
	<path id="XMLID_23_" class="st9" d="M-338.1,330.9c-0.2,0-0.4,0-0.6,0c-2.4,0-4.3,1.9-4.3,4.3c0,2.4,1.9,4.3,4.3,4.3
		c0.2,0,0.4,0,0.6,0V330.9z"/>
	<rect id="XMLID_19_" x="-301.3" y="375.4" class="st10" width="40.1" height="2.7"/>
	<polygon id="XMLID_16_" class="st11" points="-329.6,335.9 -324.9,338.4 -324.9,340.5 -330,339.2 	"/>
	<circle id="XMLID_15_" class="st8" cx="-348.9" cy="379.1" r="6.6"/>
</g>
</svg>
